<svg width="30" height="28" viewBox="0 0 30 28" fill="none" xmlns="http://www.w3.org/2000/svg">
<path d="M25.1037 13.3074L26.6062 14.1417C26.6989 14.1931 26.7756 14.2658 26.8289 14.3528C26.8822 14.4399 26.9102 14.5382 26.9102 14.6382C26.9102 14.7382 26.8822 14.8365 26.8289 14.9235C26.7756 15.0105 26.6989 15.0832 26.6062 15.1346L14.9999 21.58L3.39369 15.1346C3.301 15.0832 3.22427 15.0105 3.171 14.9235C3.11772 14.8365 3.08972 14.7382 3.08972 14.6382C3.08972 14.5382 3.11772 14.4399 3.171 14.3528C3.22427 14.2658 3.301 14.1931 3.39369 14.1417L4.89619 13.3074L14.9999 18.9197L25.1037 13.3074ZM25.1037 18.7461L26.6062 19.5804C26.6989 19.6318 26.7756 19.7045 26.8289 19.7915C26.8822 19.8785 26.9102 19.9768 26.9102 20.0768C26.9102 20.1769 26.8822 20.2752 26.8289 20.3622C26.7756 20.4492 26.6989 20.5219 26.6062 20.5733L15.6437 26.6623C15.4493 26.7704 15.2267 26.8275 14.9999 26.8275C14.7731 26.8275 14.5506 26.7704 14.3562 26.6623L3.39369 20.5733C3.301 20.5219 3.22427 20.4492 3.171 20.3622C3.11772 20.2752 3.08972 20.1769 3.08972 20.0768C3.08972 19.9768 3.11772 19.8785 3.171 19.7915C3.22427 19.7045 3.301 19.6318 3.39369 19.5804L4.89619 18.7461L14.9999 24.3584L25.1037 18.7461ZM15.6424 2.67191L26.6062 8.76092C26.6989 8.81229 26.7756 8.88502 26.8289 8.97203C26.8822 9.05903 26.9102 9.15733 26.9102 9.25734C26.9102 9.35735 26.8822 9.45565 26.8289 9.54266C26.7756 9.62966 26.6989 9.7024 26.6062 9.75377L14.9999 16.1992L3.39369 9.75492C3.301 9.70355 3.22427 9.63082 3.171 9.54382C3.11772 9.45681 3.08972 9.35851 3.08972 9.2585C3.08972 9.15849 3.11772 9.06019 3.171 8.97319C3.22427 8.88618 3.301 8.81345 3.39369 8.76208L14.3562 2.67307C14.5506 2.56494 14.7731 2.50781 14.9999 2.50781C15.2267 2.50781 15.4493 2.56494 15.6437 2.67307" fill="#9E9E9F"/>
</svg>
