<svg width="26" height="25" viewBox="0 0 26 25" fill="none" xmlns="http://www.w3.org/2000/svg">
<path d="M12.9187 9.56304C12.0427 9.56304 11.2224 9.87764 10.6013 10.4526C9.98314 11.0276 9.64036 11.787 9.64036 12.5979C9.64036 13.4088 9.98314 14.1682 10.6013 14.7432C11.2224 15.3154 12.0427 15.6327 12.9187 15.6327C13.7947 15.6327 14.615 15.3154 15.2361 14.7432C15.8542 14.1682 16.197 13.4088 16.197 12.5979C16.197 11.787 15.8542 11.0276 15.2361 10.4526C14.9327 10.1696 14.5716 9.94525 14.1738 9.79254C13.776 9.63983 13.3494 9.56181 12.9187 9.56304ZM24.9978 15.95L23.0818 14.434C23.1726 13.9187 23.2195 13.3925 23.2195 12.8691C23.2195 12.3457 23.1726 11.8168 23.0818 11.3042L24.9978 9.78814C25.1425 9.67343 25.2461 9.52066 25.2948 9.35013C25.3435 9.1796 25.3349 8.9994 25.2702 8.83348L25.2439 8.76296C24.7166 7.39793 23.9265 6.13264 22.9118 5.02839L22.8591 4.97143C22.7359 4.83733 22.5717 4.74092 22.3881 4.69493C22.2046 4.64893 22.0102 4.65551 21.8308 4.71378L19.4519 5.49758C18.573 4.8304 17.5945 4.30426 16.5339 3.93812L16.074 1.63554C16.0393 1.46208 15.9484 1.3025 15.8134 1.178C15.6783 1.0535 15.5056 0.96998 15.3181 0.938529L15.239 0.924968C13.7156 0.67003 12.1101 0.67003 10.5867 0.924968L10.5076 0.938529C10.32 0.96998 10.1473 1.0535 10.0123 1.178C9.87729 1.3025 9.7864 1.46208 9.75169 1.63554L9.2888 3.94897C8.23829 4.318 7.25967 4.84288 6.39134 5.50301L3.99486 4.71378C3.81546 4.65505 3.621 4.64823 3.43732 4.69426C3.25364 4.74028 3.08944 4.83695 2.96654 4.97143L2.9138 5.02839C1.90097 6.13381 1.11106 7.39879 0.581771 8.76296L0.555404 8.83348C0.423568 9.17249 0.531966 9.55219 0.827865 9.78814L2.76732 11.3205C2.6765 11.8304 2.63255 12.3511 2.63255 12.8664C2.63255 13.3871 2.6765 13.9078 2.76732 14.4123L0.833724 15.9446C0.688985 16.0593 0.585393 16.2121 0.536724 16.3826C0.488054 16.5532 0.496613 16.7334 0.561263 16.8993L0.58763 16.9698C1.1179 18.334 1.90013 19.5951 2.91966 20.7044L2.9724 20.7613C3.0956 20.8954 3.25981 20.9918 3.44338 21.0378C3.62695 21.0838 3.82126 21.0773 4.00072 21.019L6.3972 20.2298C7.27025 20.8942 8.2429 21.4204 9.29466 21.7838L9.75755 24.0972C9.79226 24.2707 9.88315 24.4303 10.0182 24.5548C10.1532 24.6793 10.3259 24.7628 10.5134 24.7942L10.5925 24.8078C12.1309 25.0641 13.7064 25.0641 15.2449 24.8078L15.324 24.7942C15.5115 24.7628 15.6842 24.6793 15.8192 24.5548C15.9542 24.4303 16.0451 24.2707 16.0798 24.0972L16.5398 21.7946C17.6003 21.4258 18.5788 20.9024 19.4577 20.2352L21.8367 21.019C22.0161 21.0777 22.2105 21.0845 22.3942 21.0385C22.5779 20.9925 22.7421 20.8958 22.865 20.7613L22.9177 20.7044C23.9372 19.5897 24.7195 18.334 25.2497 16.9698L25.2761 16.8993C25.4021 16.563 25.2937 16.186 24.9978 15.95ZM12.9187 17.3658C10.074 17.3658 7.76829 15.2313 7.76829 12.5979C7.76829 9.96443 10.074 7.83 12.9187 7.83C15.7634 7.83 18.0691 9.96443 18.0691 12.5979C18.0691 15.2313 15.7634 17.3658 12.9187 17.3658Z" fill="#9E9E9F"/>
</svg>
